<?xml version="1.0" encoding="iso-8859-1"?>
<!-- Generator: Adobe Illustrator 19.0.0, SVG Export Plug-In . SVG Version: 6.00 Build 0)  -->
<svg version="1.1" id="Layer_1" xmlns="http://www.w3.org/2000/svg" xmlns:xlink="http://www.w3.org/1999/xlink" x="0px" y="0px"
	 viewBox="0 0 512 512" style="enable-background:new 0 0 512 512;" xml:space="preserve">
<path style="fill:#F9BC35;" d="M462.788,77.921c-28.025-0.482-50.962,22.939-50.962,50.967v82.59
	c0,18.442,14.949,33.391,33.391,33.391h33.391c18.442,0,33.391-14.949,33.391-33.391V128C512,100.673,490.005,78.388,462.788,77.921
	z"/>
<path style="fill:#F39E31;" d="M478.609,244.87c18.442,0,33.391-14.949,33.391-33.391V128c0-27.619-22.468-50.087-50.087-50.087
	V244.87H478.609z"/>
<path style="fill:#E6EEFF;" d="M328.348,66.783H50.087C22.468,66.783,0,89.251,0,116.87v345.043C0,489.532,22.468,512,50.087,512
	h278.261c27.619,0,50.087-22.468,50.087-50.087V116.87C378.435,89.251,355.967,66.783,328.348,66.783z"/>
<path style="fill:#DAE2F2;" d="M328.348,66.783h-139.13V512h139.13c27.619,0,50.087-22.468,50.087-50.087V116.87
	C378.435,89.251,355.967,66.783,328.348,66.783z"/>
<path style="fill:#7F838C;" d="M289.391,133.565H89.043c-9.217,0-16.696-7.473-16.696-16.696V83.478
	c0-27.619,22.468-50.087,50.087-50.087h19.554C148.881,13.956,167.445,0,189.217,0s40.337,13.956,47.229,33.391H256
	c27.619,0,50.087,22.468,50.087,50.087v33.391C306.087,126.092,298.608,133.565,289.391,133.565z"/>
<g>
	<path style="fill:#54CCFF;" d="M105.739,289.391c-4.272,0-8.544-1.631-11.804-4.892l-33.391-33.391
		c-6.521-6.516-6.521-17.092,0-23.609c6.521-6.521,17.087-6.521,23.609,0l21.586,21.587l54.979-54.979
		c6.521-6.521,17.087-6.521,23.609,0c6.521,6.516,6.521,17.092,0,23.609l-66.783,66.783
		C114.283,287.761,110.011,289.391,105.739,289.391z"/>
	<path style="fill:#54CCFF;" d="M105.739,422.957c-4.272,0-8.544-1.631-11.804-4.892l-33.391-33.391
		c-6.521-6.516-6.521-17.092,0-23.609c6.521-6.521,17.087-6.521,23.609,0l21.586,21.587l54.979-54.979
		c6.521-6.521,17.087-6.521,23.609,0c6.521,6.516,6.521,17.092,0,23.609l-66.783,66.783
		C114.283,421.326,110.011,422.957,105.739,422.957z"/>
</g>
<g>
	<path style="fill:#979CA7;" d="M294.957,222.609h-44.522c-9.217,0-16.696-7.473-16.696-16.696s7.479-16.696,16.696-16.696h44.522
		c9.217,0,16.696,7.473,16.696,16.696S304.174,222.609,294.957,222.609z"/>
	<path style="fill:#979CA7;" d="M294.957,289.391h-77.913c-9.217,0-16.696-7.473-16.696-16.696s7.479-16.696,16.696-16.696h77.913
		c9.217,0,16.696,7.473,16.696,16.696C311.652,281.918,304.174,289.391,294.957,289.391z"/>
	<path style="fill:#979CA7;" d="M294.957,356.174h-44.522c-9.217,0-16.696-7.473-16.696-16.696s7.479-16.696,16.696-16.696h44.522
		c9.217,0,16.696,7.473,16.696,16.696S304.174,356.174,294.957,356.174z"/>
	<path style="fill:#979CA7;" d="M294.957,422.957h-77.913c-9.217,0-16.696-7.473-16.696-16.696s7.479-16.696,16.696-16.696h77.913
		c9.217,0,16.696,7.473,16.696,16.696S304.174,422.957,294.957,422.957z"/>
</g>
<path style="fill:#757982;" d="M289.391,133.565c9.217,0,16.696-7.473,16.696-16.696V83.478c0-27.619-22.468-50.087-50.087-50.087
	h-19.554C229.554,13.956,210.99,0,189.217,0v133.565H289.391z"/>
<path style="fill:#FFEACC;" d="M512,378.435v42.184c0,7.791-1.78,15.471-5.231,22.372l-17.81,35.617l-12.13,24.153
	c-3.117,6.122-9.017,9.238-14.916,9.238s-11.911-3.117-14.916-9.238l-12.13-24.153l-17.81-35.617
	c-3.452-6.901-5.231-14.581-5.231-22.372v-42.184L512,378.435L512,378.435z"/>
<path style="fill:#FFDBB2;" d="M461.913,512c5.899,0,11.799-3.117,14.916-9.238l12.13-24.153l17.81-35.617
	C510.22,436.09,512,428.41,512,420.619v-42.184h-50.087V512L461.913,512z"/>
<path style="fill:#7F838C;" d="M488.959,478.609l-12.13,24.153c-3.117,6.122-9.017,9.238-14.916,9.238s-11.911-3.117-14.916-9.238
	l-12.13-24.153H488.959z"/>
<path style="fill:#757982;" d="M461.913,512c5.899,0,11.799-3.117,14.916-9.238l12.13-24.153h-27.046V512z"/>
<rect x="411.83" y="211.48" style="fill:#54CCFF;" width="100.17" height="200.35"/>
<rect x="461.91" y="211.48" style="fill:#4BB8E6;" width="50.09" height="200.35"/>
<g>
</g>
<g>
</g>
<g>
</g>
<g>
</g>
<g>
</g>
<g>
</g>
<g>
</g>
<g>
</g>
<g>
</g>
<g>
</g>
<g>
</g>
<g>
</g>
<g>
</g>
<g>
</g>
<g>
</g>
</svg>
